<svg width="36" height="36" viewBox="0 0 36 36" fill="none" xmlns="http://www.w3.org/2000/svg">
<rect width="36" height="36" rx="18" fill="black"/>
<path d="M19.1485 8.55531C18.8438 8.25101 18.4308 8.08008 18.0001 8.08008C17.5695 8.08008 17.1565 8.25101 16.8518 8.55531L10.7212 14.6826C10.4164 14.9875 10.2451 15.401 10.2451 15.8321C10.2451 16.2632 10.4164 16.6766 10.7212 16.9815C11.0261 17.2863 11.4395 17.4576 11.8706 17.4576C12.3018 17.4576 12.7152 17.2863 13.0201 16.9815L16.3751 13.6275V26.1237C16.3751 26.5547 16.5463 26.968 16.8511 27.2728C17.1558 27.5775 17.5692 27.7487 18.0001 27.7487C18.4311 27.7487 18.8444 27.5775 19.1492 27.2728C19.4539 26.968 19.6251 26.5547 19.6251 26.1237V13.6275L22.9791 16.9815C23.1301 17.1324 23.3093 17.2522 23.5065 17.3338C23.7037 17.4155 23.9151 17.4576 24.1286 17.4576C24.342 17.4576 24.5534 17.4155 24.7506 17.3338C24.9478 17.2522 25.127 17.1324 25.278 16.9815C25.4289 16.8305 25.5486 16.6513 25.6303 16.4541C25.712 16.2569 25.7541 16.0455 25.7541 15.8321C25.7541 15.6186 25.712 15.4072 25.6303 15.21C25.5486 15.0128 25.4289 14.8336 25.278 14.6826L19.1485 8.55531Z" fill="white"/>
</svg>
