<svg width="62" height="62" viewBox="0 0 62 62" fill="none" xmlns="http://www.w3.org/2000/svg">
<path d="M31 3.875C25.6352 3.875 20.3909 5.46585 15.9302 8.44639C11.4695 11.4269 7.99281 15.6633 5.93978 20.6197C3.88675 25.5762 3.34959 31.0301 4.39621 36.2918C5.44284 41.5536 8.02624 46.3868 11.8197 50.1803C15.6132 53.9738 20.4465 56.5572 25.7082 57.6038C30.9699 58.6504 36.4239 58.1133 41.3803 56.0602C46.3367 54.0072 50.5731 50.5305 53.5536 46.0698C56.5342 41.6092 58.125 36.3648 58.125 31C58.125 23.806 55.2672 16.9067 50.1803 11.8197C45.0934 6.7328 38.194 3.875 31 3.875ZM27.125 41.8306L17.4375 32.1431L20.5181 29.0625L27.125 35.6694L41.4819 21.3125L44.5741 24.3854L27.125 41.8306Z" fill="#B4D1EB"/>
</svg>
