<svg width="24" height="24" viewBox="0 0 24 24" fill="none" xmlns="http://www.w3.org/2000/svg">
<rect width="24" height="24" rx="12" fill="black"/>
<path fill-rule="evenodd" clip-rule="evenodd" d="M7.4499 9.27931C7.4499 9.00347 7.56053 8.73893 7.75744 8.54389C7.95435 8.34884 8.22143 8.23926 8.4999 8.23926H15.4999C15.7784 8.23926 16.0455 8.34884 16.2424 8.54389C16.4393 8.73893 16.5499 9.00347 16.5499 9.27931V11.5327C16.5499 11.6707 16.6052 11.8029 16.7037 11.9005C16.8021 11.998 16.9357 12.0528 17.0749 12.0528C17.2141 12.0528 17.3477 11.998 17.4461 11.9005C17.5446 11.8029 17.5999 11.6707 17.5999 11.5327V9.27931C17.5999 8.72764 17.3787 8.19856 16.9848 7.80846C16.591 7.41837 16.0569 7.19922 15.4999 7.19922H8.4999C7.94295 7.19922 7.4088 7.41837 7.01498 7.80846C6.62115 8.19856 6.3999 8.72764 6.3999 9.27931V17.0797C6.39999 17.1824 6.43083 17.2829 6.48853 17.3683C6.54622 17.4538 6.62818 17.5203 6.72406 17.5597C6.81993 17.599 6.92542 17.6093 7.0272 17.5893C7.12898 17.5692 7.22248 17.5198 7.2959 17.4471L9.244 15.5196H12.1749C12.3141 15.5196 12.4477 15.4648 12.5461 15.3673C12.6446 15.2697 12.6999 15.1375 12.6999 14.9996C12.6999 14.8616 12.6446 14.7294 12.5461 14.6318C12.4477 14.5343 12.3141 14.4795 12.1749 14.4795H8.81L8.656 14.6321L7.4499 15.8247V9.27931ZM15.4999 16.2129C15.3607 16.2129 15.2271 16.1582 15.1287 16.0606C15.0302 15.9631 14.9749 15.8308 14.9749 15.6929V14.6529H13.9249C13.7857 14.6529 13.6521 14.5981 13.5537 14.5006C13.4552 14.403 13.3999 14.2708 13.3999 14.1329C13.3999 13.9949 13.4552 13.8627 13.5537 13.7651C13.6521 13.6676 13.7857 13.6128 13.9249 13.6128H14.9749V12.5728C14.9749 12.4349 15.0302 12.3026 15.1287 12.2051C15.2271 12.1076 15.3607 12.0528 15.4999 12.0528C15.6391 12.0528 15.7727 12.1076 15.8711 12.2051C15.9696 12.3026 16.0249 12.4349 16.0249 12.5728V13.6128H17.0749C17.2141 13.6128 17.3477 13.6676 17.4461 13.7651C17.5446 13.8627 17.5999 13.9949 17.5999 14.1329C17.5999 14.2708 17.5446 14.403 17.4461 14.5006C17.3477 14.5981 17.2141 14.6529 17.0749 14.6529H16.0249V15.6929C16.0249 15.8308 15.9696 15.9631 15.8711 16.0606C15.7727 16.1582 15.6391 16.2129 15.4999 16.2129Z" fill="white"/>
</svg>
