<svg width="28" height="32" viewBox="0 0 28 32" fill="none" xmlns="http://www.w3.org/2000/svg">
<path d="M20.0234 0.490234C24.429 0.490376 28 4.06222 28 8.46777V18.584C28 22.9895 24.429 26.5614 20.0234 26.5615H16.6426L8.87695 31.2764C7.81372 31.9218 6.45312 31.1559 6.45312 29.9121V26.5605H7.94043C3.55167 26.5408 0 22.9774 0 18.584V8.46777C0 4.06213 3.5719 0.490234 7.97754 0.490234H20.0234Z" fill="white"/>
<path d="M12.7177 6.90498C10.5764 6.75536 9.13978 7.92925 8.68912 8.5349L8.28376 9.04135C8.23777 8.90775 8.10961 8.10735 7.99924 7.14543C7.86127 5.94304 7.14386 5.83617 6.89552 5.88961C6.69685 5.93236 6.66556 6.29931 6.67476 6.47744L8.27519 22.1353C8.27519 22.1353 8.4566 22.6417 9.10796 22.5368C9.75932 22.4318 9.73764 21.975 9.73764 21.975L9.23353 16.1837C9.59225 15.7919 11.4595 14.9851 15.2563 15.3484C19.6437 16.3371 20.6095 15.5355 20.9406 15.3484C21.2055 15.1988 21.3085 14.8764 21.3269 14.7339L19.4505 11.7947V11.3939C19.4505 11.2613 19.6962 10.9168 20.3257 10.034L20.3402 10.0137C21.1404 8.89147 21.1613 7.94704 20.9406 7.41264C20.4439 7.73328 18.7267 8.16203 17.7949 7.94704C17.095 7.78553 15.3943 7.09201 12.7177 6.90498Z" fill="#FF4127"/>
</svg>
