<svg width="30" height="30" viewBox="0 0 30 30" fill="none" xmlns="http://www.w3.org/2000/svg">
<rect width="30" height="30" rx="15" fill="black"/>
<path fill-rule="evenodd" clip-rule="evenodd" d="M9.51789 13.5269C9.51789 12.0611 10.0955 10.6553 11.1236 9.6188C12.1517 8.5823 13.5461 8 15 8C16.4539 8 17.8483 8.5823 18.8764 9.6188C19.9045 10.6553 20.4821 12.0611 20.4821 13.5269V16.4988L21.909 19.376C21.9747 19.5084 22.0057 19.6555 21.9991 19.8035C21.9925 19.9514 21.9485 20.0951 21.8713 20.2211C21.7941 20.347 21.6862 20.451 21.558 20.5231C21.4297 20.5951 21.2853 20.633 21.1384 20.6329H18.034C17.8598 21.3106 17.4673 21.9107 16.9182 22.3391C16.369 22.7675 15.6943 23 15 23C14.3057 23 13.631 22.7675 13.0818 22.3391C12.5327 21.9107 12.1402 21.3106 11.966 20.6329H8.8616C8.71474 20.633 8.57032 20.5951 8.44204 20.5231C8.31376 20.451 8.20589 20.347 8.12868 20.2211C8.05147 20.0951 8.00747 19.9514 8.00087 19.8035C7.99427 19.6555 8.02529 19.5084 8.09097 19.376L9.51789 16.4988V13.5269ZM13.6436 20.6329C13.781 20.873 13.9788 21.0723 14.2169 21.2109C14.455 21.3495 14.7251 21.4224 15 21.4224C15.2749 21.4224 15.545 21.3495 15.7831 21.2109C16.0212 21.0723 16.219 20.873 16.3564 20.6329H13.6436ZM15 9.57912C13.9615 9.57912 12.9655 9.99505 12.2311 10.7354C11.4968 11.4758 11.0842 12.4799 11.0842 13.5269V16.4988C11.0842 16.7438 11.0276 16.9855 10.919 17.2047L10.0027 19.0538H19.9981L19.0818 17.2047C18.9729 16.9856 18.9161 16.7439 18.9158 16.4988V13.5269C18.9158 12.4799 18.5032 11.4758 17.7689 10.7354C17.0345 9.99505 16.0385 9.57912 15 9.57912Z" fill="white"/>
</svg>
