<svg width="30" height="30" viewBox="0 0 30 30" fill="none" xmlns="http://www.w3.org/2000/svg">
<rect width="30" height="30" rx="15" fill="black"/>
<path d="M19.4209 11.9385C19.5385 11.7412 19.8143 11.7351 19.9453 11.9268L25.3447 19.8271C25.4909 20.0416 25.3497 20.3351 25.0977 20.3379C24.3878 20.3451 22.8907 20.3596 19.8613 20.3906L19.4209 11.9385ZM10.832 7.40625C10.956 7.21353 11.2333 7.20617 11.3623 7.39551C12.4008 8.91924 16.2012 14.502 18.5303 18.0156L3.32033 20C3.06723 20 2.91402 19.7198 3.0508 19.5068L10.832 7.40625ZM19.7344 5C20.8389 5.00011 21.7344 5.8955 21.7344 7C21.7344 8.1045 20.8389 8.99989 19.7344 9C18.6298 9 17.7344 8.10457 17.7344 7C17.7344 5.89543 18.6298 5 19.7344 5Z" fill="white"/>
</svg>
