<svg width="25" height="25" viewBox="0 0 25 25" fill="none" xmlns="http://www.w3.org/2000/svg">
<rect width="25" height="25" rx="5" fill="#FF4026"/>
<path d="M10.2659 18.3178L10.7302 17.7288L10.2659 18.3178ZM12.4999 8.45733L11.9595 8.97743C12.1009 9.12433 12.296 9.20733 12.4999 9.20733C12.7038 9.20733 12.8989 9.12433 13.0403 8.97743L12.4999 8.45733ZM14.7339 18.3178L15.1982 18.9068L14.7339 18.3178ZM8.95005 16.3337C8.63022 16.0704 8.15757 16.1163 7.89435 16.4361C7.63113 16.756 7.67702 17.2286 7.99685 17.4918L8.95005 16.3337ZM5.22425 14.3694C5.42301 14.7328 5.87874 14.8663 6.24215 14.6675C6.60556 14.4688 6.73904 14.013 6.54028 13.6496L5.22425 14.3694ZM5.14697 11.1312H5.89697C5.89697 9.62396 6.74836 8.37028 7.89448 7.84639C8.99331 7.34411 10.4971 7.45805 11.9595 8.97743L12.4999 8.45733L13.0403 7.93723C11.194 6.01899 9.02134 5.68202 7.27088 6.48216C5.5677 7.26069 4.39697 9.06276 4.39697 11.1312H5.14697ZM10.2659 18.3178L9.80158 18.9068C10.1764 19.2023 10.5914 19.5277 11.0151 19.7753C11.4385 20.0227 11.9419 20.2363 12.4999 20.2363V19.4863V18.7363C12.3227 18.7363 12.0908 18.6665 11.7718 18.4802C11.4532 18.294 11.1188 18.0352 10.7302 17.7288L10.2659 18.3178ZM14.7339 18.3178L15.1982 18.9068C16.2355 18.0891 17.5983 17.1255 18.6655 15.9238C19.7584 14.6932 20.6029 13.1531 20.6029 11.1312H19.8529H19.1029C19.1029 12.685 18.4696 13.8854 17.5439 14.9278C16.5925 15.9992 15.3959 16.841 14.2696 17.7288L14.7339 18.3178ZM19.8529 11.1312H20.6029C20.6029 9.06276 19.4321 7.26069 17.7289 6.48216C15.9785 5.68202 13.8058 6.01899 11.9595 7.93723L12.4999 8.45733L13.0403 8.97743C14.5027 7.45805 16.0065 7.34411 17.1054 7.84639C18.2515 8.37028 19.1029 9.62396 19.1029 11.1312H19.8529ZM14.7339 18.3178L14.2696 17.7288C13.881 18.0352 13.5466 18.294 13.228 18.4802C12.9091 18.6665 12.6772 18.7363 12.4999 18.7363V19.4863V20.2363C13.058 20.2363 13.5614 20.0227 13.9848 19.7753C14.4084 19.5277 14.8234 19.2023 15.1982 18.9068L14.7339 18.3178ZM10.2659 18.3178L10.7302 17.7288C10.1379 17.2619 9.55223 16.8293 8.95005 16.3337L8.47345 16.9127L7.99685 17.4918C8.60861 17.9953 9.26252 18.4818 9.80158 18.9068L10.2659 18.3178ZM5.88227 14.0095L6.54028 13.6496C6.1423 12.9219 5.89697 12.0998 5.89697 11.1312H5.14697H4.39697C4.39697 12.3712 4.71544 13.4391 5.22425 14.3694L5.88227 14.0095Z" fill="white"/>
<path d="M12.4999 8.45703L11.397 10.6624L13.9705 12.5007L11.7646 15.0742L13.2352 16.5448L12.4999 19.486" stroke="white" stroke-width="1.5" stroke-linecap="round" stroke-linejoin="round"/>
</svg>
