<svg width="36" height="36" viewBox="0 0 36 36" fill="none" xmlns="http://www.w3.org/2000/svg">
<rect width="36" height="36" rx="18" fill="black"/>
<path d="M17.658 10.2792C18.065 9.87753 18.5509 9.55763 19.0874 9.33805C19.624 9.11848 20.2005 9.0036 20.7836 9.00008C21.3666 8.99657 21.9446 9.10449 22.4839 9.31758C23.0233 9.53067 23.5133 9.84469 23.9256 10.2414C24.3378 10.6382 24.6641 11.1097 24.8855 11.6287C25.1068 12.1477 25.2189 12.7039 25.2152 13.2649C25.2115 13.8259 25.092 14.3806 24.8637 14.8969C24.6354 15.4131 24.3029 15.8806 23.8854 16.2722L17.0352 22.8645C16.7906 23.1038 16.4992 23.2941 16.1777 23.4245C15.8563 23.5549 15.5112 23.6227 15.1624 23.6241C14.8136 23.6255 14.4679 23.5605 14.1454 23.4327C13.8228 23.3049 13.5297 23.1169 13.283 22.8796C13.0363 22.6423 12.8409 22.3604 12.7081 22.05C12.5752 21.7397 12.5075 21.4071 12.5089 21.0714C12.5102 20.7358 12.5807 20.4037 12.7161 20.0944C12.8515 19.7851 13.0492 19.5046 13.2979 19.2692L20.1489 12.6769L21.3944 13.8754L14.5434 20.4676C14.4592 20.5458 14.3921 20.6393 14.346 20.7427C14.2998 20.8461 14.2755 20.9574 14.2745 21.0699C14.2735 21.1824 14.2958 21.294 14.34 21.3982C14.3843 21.5024 14.4497 21.597 14.5324 21.6766C14.6151 21.7561 14.7135 21.8191 14.8217 21.8617C14.93 21.9043 15.046 21.9258 15.1629 21.9248C15.2799 21.9238 15.3955 21.9004 15.5029 21.856C15.6104 21.8116 15.7076 21.747 15.7888 21.6661L22.6408 15.0738C22.8862 14.8377 23.0808 14.5574 23.2137 14.2488C23.3465 13.9403 23.4148 13.6097 23.4148 13.2757C23.4148 12.9418 23.3465 12.6111 23.2137 12.3026C23.0808 11.9941 22.8862 11.7138 22.6408 11.4776C22.3954 11.2415 22.1041 11.0542 21.7834 10.9264C21.4628 10.7986 21.1192 10.7329 20.7721 10.7329C20.4251 10.7329 20.0814 10.7986 19.7608 10.9264C19.4402 11.0542 19.1488 11.2415 18.9034 11.4776L12.0524 18.0707C11.2501 18.87 10.8062 19.9405 10.8163 21.0516C10.8263 22.1627 11.2895 23.2256 12.106 24.0113C12.9226 24.797 14.0272 25.2427 15.1819 25.2524C16.3367 25.262 17.4492 24.8349 18.2798 24.0629L25.7545 16.8715L27 18.0707L19.5262 25.2622C18.3698 26.3749 16.8014 27 15.1661 27C13.5307 27 11.9624 26.3749 10.806 25.2622C9.64964 24.1495 9 22.6404 9 21.0668C9 19.4933 9.64964 17.9841 10.806 16.8715L17.658 10.2792Z" fill="white"/>
</svg>
