<svg width="20" height="21" viewBox="0 0 20 21" fill="none" xmlns="http://www.w3.org/2000/svg">
<path d="M19.9619 0.698242V20.3008H0.359375V0.698242H19.9619Z" stroke="#8F8C8C" stroke-width="0.0768704"/>
<path d="M4.01074 3.73438L16.31 17.2636" stroke="#8F8C8C" stroke-width="1.22993" stroke-linecap="round" stroke-linejoin="round"/>
<path d="M12.2299 12.775C11.6265 13.3235 10.8299 13.6098 10.0154 13.571C9.20084 13.5321 8.43509 13.1714 7.88656 12.568C7.33803 11.9646 7.05164 11.168 7.09039 10.3535C7.12914 9.53897 7.48986 8.77319 8.09319 8.22461" stroke="#8F8C8C" stroke-width="1.22993" stroke-linecap="round" stroke-linejoin="round"/>
<path d="M6.00982 5.93359C2.87587 7.52063 1.55176 10.5002 1.55176 10.5002C1.55176 10.5002 4.01161 16.0343 10.1612 16.0343C11.6021 16.0457 13.025 15.7139 14.3121 15.0661" stroke="#8F8C8C" stroke-width="1.22993" stroke-linecap="round" stroke-linejoin="round"/>
<path d="M16.3576 13.6595C18.0335 12.1584 18.7706 10.5001 18.7706 10.5001C18.7706 10.5001 16.3108 4.96486 10.1611 4.96486C9.62852 4.96399 9.09675 5.00729 8.57129 5.09432" stroke="#8F8C8C" stroke-width="1.22993" stroke-linecap="round" stroke-linejoin="round"/>
<path d="M10.7393 7.47852C11.3928 7.60401 11.988 7.93801 12.4357 8.43043C12.8833 8.92284 13.1592 9.54712 13.222 10.2096" stroke="#8F8C8C" stroke-width="1.22993" stroke-linecap="round" stroke-linejoin="round"/>
</svg>
