<svg width="14" height="20" viewBox="0 0 14 20" fill="none" xmlns="http://www.w3.org/2000/svg">
<path fill-rule="evenodd" clip-rule="evenodd" d="M7.00004 0.833984C5.15909 0.833984 3.66671 2.32637 3.66671 4.16732V10.0007C3.66671 11.8416 5.15909 13.334 7.00004 13.334C8.84099 13.334 10.3334 11.8416 10.3334 10.0007V4.16732C10.3334 2.32637 8.84099 0.833984 7.00004 0.833984Z" fill="black" fill-opacity="0.6"/>
<path d="M2.00004 8.33398C2.00004 7.87375 1.62694 7.50065 1.16671 7.50065C0.70647 7.50065 0.333374 7.87375 0.333374 8.33398V10.0007C0.333374 13.4009 2.87892 16.2065 6.16827 16.6159C6.16724 16.6329 6.16671 16.6501 6.16671 16.6673V17.5006H3.66671C3.20647 17.5006 2.83337 17.8737 2.83337 18.334C2.83337 18.7942 3.20647 19.1673 3.66671 19.1673H10.3334C10.7936 19.1673 11.1667 18.7942 11.1667 18.334C11.1667 17.8737 10.7936 17.5006 10.3334 17.5006H7.83337V16.6673C7.83337 16.6501 7.83285 16.6329 7.83181 16.6159C11.1212 16.2065 13.6667 13.4009 13.6667 10.0007V8.33398C13.6667 7.87375 13.2936 7.50065 12.8334 7.50065C12.3731 7.50065 12 7.87375 12 8.33398V10.0007C12 12.7621 9.76146 15.0006 7.00004 15.0006C4.23862 15.0006 2.00004 12.7621 2.00004 10.0007V8.33398Z" fill="black" fill-opacity="0.6"/>
</svg>
