<svg width="36" height="36" viewBox="0 0 36 36" fill="none" xmlns="http://www.w3.org/2000/svg">
<rect width="36" height="36" rx="18" fill="black"/>
<path d="M18 20.6316C17.1667 20.6316 16.4583 20.3246 15.875 19.7105C15.2917 19.0965 15 18.3509 15 17.4737V11.1579C15 10.2807 15.2917 9.53509 15.875 8.92105C16.4583 8.30702 17.1667 8 18 8C18.8333 8 19.5417 8.30702 20.125 8.92105C20.7083 9.53509 21 10.2807 21 11.1579V17.4737C21 18.3509 20.7083 19.0965 20.125 19.7105C19.5417 20.3246 18.8333 20.6316 18 20.6316ZM17 28V24.7632C15.2667 24.5175 13.8333 23.7018 12.7 22.3158C11.5667 20.9298 11 19.3158 11 17.4737H13C13 18.9298 13.4877 20.1712 14.463 21.1979C15.4383 22.2246 16.6173 22.7375 18 22.7368C19.3827 22.7361 20.562 22.2228 21.538 21.1968C22.514 20.1709 23.0013 18.9298 23 17.4737H25C25 19.3158 24.4333 20.9298 23.3 22.3158C22.1667 23.7018 20.7333 24.5175 19 24.7632V28H17Z" fill="white"/>
</svg>
